<svg xmlns="http://www.w3.org/2000/svg" width="16.03" height="15" viewBox="0 0 16.03 15">
  <metadata><?xpacket begin="﻿" id="W5M0MpCehiHzreSzNTczkc9d"?>
<x:xmpmeta xmlns:x="adobe:ns:meta/" x:xmptk="Adobe XMP Core 5.6-c140 79.160451, 2017/05/06-01:08:21        ">
   <rdf:RDF xmlns:rdf="http://www.w3.org/1999/02/22-rdf-syntax-ns#">
      <rdf:Description rdf:about=""/>
   </rdf:RDF>
</x:xmpmeta>
                                                                                                    
                                                                                                    
                                                                                                    
                                                                                                    
                                                                                                    
                                                                                                    
                                                                                                    
                                                                                                    
                                                                                                    
                                                                                                    
                                                                                                    
                                                                                                    
                                                                                                    
                                                                                                    
                                                                                                    
                                                                                                    
                                                                                                    
                                                                                                    
                                                                                                    
                                                                                                    
                           
<?xpacket end="w"?></metadata>
<defs>
    <style>
      .cls-1 {
        fill: #262626;
        fill-rule: evenodd;
        opacity: 0.85;
      }
    </style>
  </defs>
  <path id="ico_cart" class="cls-1" d="M1141.46,21.529l-2.32,8.97h-6.77l-1.69-6.721-1.74.108,1.81,7.4,0.36,0.724h9.25l0.48-.724,2.13-8.77,1.55,0.063,0.45-1.546L1142.44,21Zm-2.53,11.506a1.483,1.483,0,1,0,1.47,1.483A1.477,1.477,0,0,0,1138.93,33.035Zm-6.14,0a1.483,1.483,0,1,0,1.47,1.483A1.48,1.48,0,0,0,1132.79,33.035Zm0.52-4.785h5.13v0.375h-5.13V28.25ZM1133,26.219h5.87v0.375H1133V26.219Zm-0.75-2.031h7.19v0.375h-7.19V24.188Z" transform="translate(-1128.94 -21)"/>
</svg>
